<svg xmlns="http://www.w3.org/2000/svg" xmlns:xlink="http://www.w3.org/1999/xlink"><symbol id="icon-arrow"><g fill="none"><path d="m.777 11 5-5-5-5" stroke="#3E3E3E" stroke-linecap="round" stroke-linejoin="round"/></g></symbol><symbol id="icon-careers"><g fill="none"><path d="M4.5 8.219v4.361c0 1.6 2.5 3 5.5 3s5.5-1.3 5.5-3V8.22m2-1.222v4.083c0 .8.7 1.5 1.5 1.5m0-6.5-9 5.5-9-5.5 9-5.5 9 5.5Z"/></g></symbol><symbol id="icon-schedule"><g fill="none"><path d="M13.5 2.879h2v13H.5v-13h2m8 0h-5m-5 4h15m-2-6h-3v4h3v-4Zm-8 0h-3v4h3v-4Z" stroke="#3E3E3E" stroke-miterlimit="10" stroke-linecap="round" stroke-linejoin="round"/></g></symbol><symbol id="logo-barco"><g fill="none"><path fill-rule="evenodd" clip-rule="evenodd" d="M17.288 27.901a3.98 3.98 0 0 0 0-7.962h-9.31v-6.031h8.518l.021.008a3.649 3.649 0 1 0 0-7.298L5.929 6.61v21.288l11.359.003Zm5.086-11.522a8.296 8.296 0 0 1 4.853 7.549h-.078l.023.002c0 5.496-4.456 9.968-9.952 9.968L5.973 33.9H0V.726h5.972L16.438.717c5.313 0 9.62 4.423 9.62 9.604l.015-.088a6.966 6.966 0 0 1-3.724 6.167l.025-.021Zm31.629 17.483-.005-10.648h-13.31v-5.97h13.307v-3.628a7.63 7.63 0 1 0-15.262 0l.018 20.246-5.91.004-.058-20.246c0-7.511 6.09-13.6 13.6-13.6 7.512 0 13.603 6.089 13.603 13.6l.009 20.246-5.992-.004ZM88.707 16.4l.022-.021a8.295 8.295 0 0 1 4.854 7.549l.002 9.934h-5.97l.009-9.942a3.98 3.98 0 0 0-3.98-3.98h-9.31v-6.032h8.518l.02.008a3.65 3.65 0 0 0 0-7.298L72.285 6.61l.025 27.29h-5.954V.726h5.971L82.795.717c5.313 0 9.62 4.423 9.62 9.604l.015-.088a6.966 6.966 0 0 1-3.723 6.167Zm24.682 17.464c-9.159 0-16.587-7.427-16.587-16.587C96.802 8.116 104.23.69 113.39.69h9.89l-.026 5.946h-9.889c-5.862 0-10.615 4.753-10.615 10.616 0 5.864 4.753 10.617 10.615 10.617h9.889l.026 5.996h-9.89Z" fill="#CC2229"/><path fill-rule="evenodd" clip-rule="evenodd" d="M142.681 28.522c6.229 0 11.278-5.05 11.278-11.278 0-6.23-5.049-11.28-11.278-11.28-6.23 0-11.28 5.05-11.28 11.28 0 6.228 5.05 11.278 11.28 11.278Zm0-4.643a6.634 6.634 0 1 0 .001-13.269 6.634 6.634 0 0 0-.001 13.269Zm-15.997-12.923C129.199 4.539 135.443 0 142.746 0c7.335 0 13.602 4.58 16.096 11.036l-.013-.04a4.641 4.641 0 0 0 4.339 2.984l.09-.014h5.056V20.6h-5.056l-.12.01a4.628 4.628 0 0 0-4.307 2.885l.017-.045c-2.491 6.465-8.761 11.049-16.102 11.049-7.277 0-13.502-4.506-16.058-10.933-.704-1.764-2.378-2.974-4.334-2.974l-5.413.008v-6.635l5.392.01a4.64 4.64 0 0 0 4.351-3.02Z" fill="#CC2229"/></g></symbol><symbol id="logo-buffets"><g fill="none"><path fill-rule="evenodd" clip-rule="evenodd" d="M72.523 22.765c2.313-.754 4.093-1.481 4.223-4.249.078-1.494-.572-2.846-2.106-3.236-2.274-.585-4.353 1.534-3.651 3.756.273.883 1.026 1.338 1.69 1.897l-.156 1.832ZM1.495 21.336V34.5h9.59c6.38-.597 6.6-7.576 2.338-9.927 3.82-2.443 2.547-8.824-2.338-9.058H1.533C1.026 17.451.507 19.4 0 21.336h1.495Zm5.535-.728v2.664h1.91c1.39.013 1.56-2.664 0-2.664H7.03Zm0 5.978v2.677h1.91c1.39 0 1.56-2.664 0-2.677H7.03Zm23.767-6.341h-5.77v8.628c-.623 0-2 0-2-.884v-7.744h-5.835l-1.456 5.627h1.456v4.807c0 1.962 1.884 3.82 3.69 3.82h3.197l.949-1.507V34.5h5.77l1.455-5.627h-1.456v-8.628Zm9.603 0h-.559V18.32c0-.467-.636-2.807-2.144-2.807H32.11c.35 1.352.714 2.716 1.065 4.067.922 0 .922 0 .922.663H32.98l-1.624 6.16h2.741v8.095h5.744v-8.095h.558v8.095h5.796v-8.095h1.183l1.546-6.16h-2.728c0-.663 0-.663.87-.663l1.104-4.067h-5.626c-1.507 0-2.144 2.34-2.144 2.807v1.924Zm13.397 8.225h8.226c.05-2.716-.234-4.6-2.418-6.433-1.936-1.637-4.574-2.3-6.965-1.325-2.599 1.053-4.51 3.054-4.769 5.926-.26 2.755.923 4.912 3.145 6.47 1.91 1.34 4.392 1.547 6.627 1.132.923-.182 1.703-.495 2.56-.832.26-1.339.533-2.678.792-4.016-3.611 1.287-6.535.547-7.198-.922Zm3.587-2.95h-4.679c0-2.481 4.679-2.599 4.679 0Zm12.89-7.991h-1.832v-2.015l-5.717 1.001v1.014h-.338l-1.143 5.25h1.48V34.5h5.718V22.778h.585l1.247-5.25Zm5.822 11.63c-.325 1.182-.65 2.378-.975 3.56 1.13.832 1.638 1.17 3.028 1.455 1 .195 2.092.338 3.118.221 1.898-.233 3.353-1.17 3.938-3.002.246-.805.13-1.936-.195-2.702-.286-.689-.858-1.248-1.443-1.676-.65-.469-1.325-.702-2.053-1.001-.402-.17-.936-.209-.91-.754 0-.143.052-.22.182-.286.819-.39 1.832.052 2.56.403.403-1.144.82-2.287 1.221-3.43-.91-.624-1.572-1.13-2.65-1.443-.858-.26-1.729-.43-2.638-.325-.897.117-2.014.48-2.716 1.079-.728.623-1.156 1.43-1.352 2.365-.116.571-.104 1.26.092 1.819.273.767.727 1.507 1.325 2.053.637.572 1.43.87 2.182 1.26.287.143.481.183.624.339.403.48-.052.96-.572.883-.96-.13-1.856-.493-2.766-.818Z" fill="#50A856"/><path fill-rule="evenodd" clip-rule="evenodd" d="M52.94.766a1.27 1.27 0 0 1 1.26 1.26 1.262 1.262 0 0 1-1.26 1.26c-.25.001-.493-.07-.702-.207l-2.78 9.11H30.952l-2.82-9.058c-.18.106-.388.16-.598.156a1.261 1.261 0 0 1-1.26-1.26 1.27 1.27 0 0 1 1.26-1.26 1.262 1.262 0 0 1 .832 2.209l3.236 3.014 1.95-3.08v-.415a1.256 1.256 0 0 1-.63-2.123A1.27 1.27 0 0 1 33.812 0a1.261 1.261 0 0 1 1.021 2.001 1.248 1.248 0 0 1-.631.455v.364l2.95 3.17 2.69-3.17v-.35A1.261 1.261 0 0 1 40.205 0a1.27 1.27 0 0 1 1.261 1.26 1.28 1.28 0 0 1-.975 1.235v.325l2.69 3.17 2.885-3.144v-.468a1.29 1.29 0 0 1-.663-1.117 1.262 1.262 0 0 1 1.26-1.26 1.27 1.27 0 0 1 1.262 1.26 1.26 1.26 0 0 1-1.209 1.26v.351l1.975 3.119 3.379-3.054a1.206 1.206 0 0 1-.39-.91A1.26 1.26 0 0 1 52.94.767Zm-8.447 20.92h.637v3.262h1.898v.585h-2.535v-3.847Zm-10.85 0h1.819c.026.014.04.014.04.014.337 0 .61.09.792.285.194.182.299.442.299.78 0 .208-.052.403-.156.558a.726.726 0 0 1-.403.326c.156.051.273.13.338.246.065.104.117.286.117.533l.04.546c.012.247.064.39.155.442v.117h-.715c-.026-.052-.038-.117-.065-.183a1.823 1.823 0 0 1-.026-.324l-.026-.468c-.013-.247-.065-.403-.156-.48-.09-.092-.234-.13-.454-.13h-.962v1.585h-.637v-3.847Zm.624.547v1.183h.922c.26 0 .456-.052.572-.143.117-.104.182-.247.182-.455 0-.209-.065-.364-.169-.456-.117-.091-.312-.13-.572-.13h-.935Zm3.04-.547h2.755v.56h-2.131v1.013h1.962v.533h-1.962v1.156h2.196v.585h-2.82v-3.847Zm5.757 1.638v.585h-2.002v-.585a1.01 1.01 0 0 1 1.001-1 .993.993 0 0 1 1.001 1Zm-2.638 0c0-.897.74-1.637 1.637-1.637.91 0 1.65.728 1.65 1.637v2.21h-.65v-.989h-2.001v.988h-.637v-2.209Z" fill="#E9B040"/></g></symbol><symbol id="logo-danisco"><g fill="none"><path fill-rule="evenodd" clip-rule="evenodd" d="M12.412 18.892v-6.755h6.481v6.755h-6.48Z" fill="#313A7F"/><path fill-rule="evenodd" clip-rule="evenodd" d="M18.892.001v6.48H6.482v12.411H0V0l18.892.001Z" fill="#509A98"/><path fill-rule="evenodd" clip-rule="evenodd" d="M195.355 20.153c0-3.864-1.509-7.42-4.407-10.135-2.857-2.677-6.749-4.207-10.72-4.207-3.971 0-7.9 1.53-10.76 4.207-2.898 2.715-4.408 6.234-4.408 10.135 0 4.36 1.945 8.298 5.519 11.052a15.915 15.915 0 0 0 9.648 3.295c3.971 0 7.78-1.5 10.72-4.213 2.86-2.639 4.408-6.232 4.408-10.134Zm-15.128 8.533c-5.189 0-8.521-3.775-8.521-8.512 0-4.7 3.484-8.547 8.521-8.547 4.962 0 8.484 3.847 8.484 8.547 0 4.737-3.447 8.512-8.484 8.512Zm-18.906-14.554.206-5.852c-2.384-1.07-5.833-2.508-9.535-2.508-9.787 0-15.9 6.272-15.9 14.341 0 8.223 6.21 13.726 15.71 13.726 3.249 0 7.489-1.13 10.162-2.584l.041-6.004c-2.508 1.743-6.755 3.503-10.119 3.305-4.503-.265-9.336-2.783-9.336-8.443 0-5.851 4.859-8.856 10.017-8.512 3.554.238 6.698 1.354 8.754 2.531Zm-48.64 17.185c2.847 1.583 5.775 2.797 9.183 2.797 6.58 0 10.277-3.292 10.277-8.225 0-3.443-2.639-6.574-7.579-8.662-3.284-1.389-5.537-1.474-5.537-3.998 0-1.798 1.091-2.17 3.64-2.17 2.015 0 5.166.379 8.321 2.371l.037-5.22c-2.937-1.714-5.189-2.437-8.727-2.437-6.373 0-10.296 3.404-10.362 7.725-.065 4.211 2.249 6.27 6.569 8.368 4.027 1.956 6.714 1.997 6.714 4.406 0 2.141-1.662 2.63-4.707 2.63-2.427 0-6.129-1.676-7.87-3.508l.041 5.923Zm-12.261 2.451h6.291V6.423h-6.291v27.345Zm-34.423 0h6.879V18.165l-.235-3.5 1.581 2.888 13.365 16.215h6.17V6.423h-6.705V21.72l.06 2.232-1.58-1.62-12.996-15.91h-6.54v27.345ZM51.89 23.365h-8.143l3.167-8.72c.124-.345.453-1.606.864-3.785.37 1.988.658 3.213.823 3.67l3.289 8.835ZM33.17 33.768h6.752l2.058-5.814h11.39l2.386 5.814h7.155L51.56 6.423h-7.197L33.171 33.768Zm-26.683 0h8.512c9.28 0 17.832-3.63 17.832-13.615S26.845 6.966 18.891 6.526v5.584c4.74.494 7.484 2.686 7.484 8.004 0 6.196-3.687 7.883-10.101 7.883h-3.817v-9.105h-5.97v14.876Z" fill="#313A7F"/></g></symbol><symbol id="logo-embratur"><g fill="none"><path fill-rule="evenodd" clip-rule="evenodd" d="M40.627 5.231V1.08h1.038l.62 2.834.618-2.834h1.058V5.23h-.66V1.957l-.678 3.274h-.678l-.679-3.274V5.23h-.639Zm3.993 0V1.08h.698V5.23h-.698Zm1.377 0V1.08h.68l1.397 2.775V1.079h.658V5.23h-.698l-1.398-2.695V5.23h-.639Zm3.434 0V1.08h.699V5.23h-.699Zm1.198-1.338.68-.08c.04.26.12.46.239.6a.71.71 0 0 0 .5.2c.218 0 .398-.06.518-.18a.634.634 0 0 0 .16-.4.549.549 0 0 0-.06-.259.953.953 0 0 0-.26-.18 12.094 12.094 0 0 1-.559-.18c-.38-.1-.639-.24-.778-.399a1.192 1.192 0 0 1-.32-.838c0-.22.04-.42.14-.6s.26-.32.44-.419c.18-.1.418-.14.678-.14.44 0 .76.1.979.34.219.22.339.54.339.918l-.7.04c-.019-.22-.08-.379-.18-.479a.72.72 0 0 0-.438-.14c-.22 0-.38.06-.48.16-.08.06-.12.14-.12.26 0 .1.04.179.1.24.1.1.32.199.64.279.338.1.598.2.758.299.16.12.3.26.38.439.1.16.14.4.14.659 0 .239-.06.459-.16.659-.12.219-.26.359-.46.459a1.772 1.772 0 0 1-.758.16c-.439 0-.779-.12-.998-.36-.24-.238-.38-.599-.42-1.058Zm4.153 1.338V1.778h-1.018v-.7h2.735v.7H55.48V5.23h-.698Zm2.176 0V1.08h2.555v.699h-1.857v.938h1.718v.7h-1.718v1.118h1.917v.699h-2.615V5.23ZM57.836.84l.32-.839h.738l-.638.839h-.42Zm2.336 4.392V1.08h1.457c.38 0 .64.04.799.12.18.06.3.2.4.4.1.179.159.399.159.638 0 .32-.08.58-.24.779-.14.2-.379.34-.679.38.16.12.28.239.38.359.1.12.24.359.4.679l.418.798h-.838l-.5-.898c-.18-.32-.299-.52-.358-.62-.08-.08-.14-.14-.22-.16a.741.741 0 0 0-.34-.059h-.14v1.737h-.698Zm.7-2.395h.498c.34 0 .559-.02.639-.04a.392.392 0 0 0 .18-.18c.059-.08.08-.2.08-.32a.618.618 0 0 0-.1-.34.392.392 0 0 0-.26-.159c-.06 0-.22-.02-.5-.02h-.538v1.059Zm2.754 2.395V1.08h.698V5.23h-.698Zm1.218-2.036c0-.44.04-.798.16-1.078.079-.2.179-.4.319-.56.12-.179.28-.299.439-.378.22-.12.46-.16.739-.16.52 0 .918.179 1.218.558.32.38.459.919.459 1.578 0 .679-.14 1.197-.459 1.577a1.458 1.458 0 0 1-1.197.58c-.52 0-.919-.2-1.239-.56-.3-.379-.44-.898-.44-1.557Zm.718-.04c0 .479.08.838.26 1.077.18.24.42.36.699.36.26 0 .5-.12.678-.36.179-.239.26-.598.26-1.077 0-.48-.08-.839-.26-1.078a.79.79 0 0 0-.678-.34c-.3 0-.52.1-.7.34-.18.24-.259.599-.259 1.078Zm4.492-2.076h1.278c.28 0 .498.02.659.08.2.08.38.2.52.379.14.18.259.419.318.679.08.26.12.598.12.978 0 .34-.04.639-.1.899-.1.299-.22.539-.38.718-.12.14-.28.26-.48.34-.16.06-.358.08-.618.08h-1.318l.001-4.153Zm.7.699v2.755h.519c.2 0 .339 0 .419-.04a.44.44 0 0 0 .28-.16c.078-.08.138-.22.178-.419.06-.18.08-.439.08-.759 0-.319-.02-.559-.08-.738a1.099 1.099 0 0 0-.179-.4.745.745 0 0 0-.34-.2 2.86 2.86 0 0 0-.56-.04h-.318Zm2.654 1.417c0-.44.04-.798.14-1.078.08-.2.2-.4.32-.56.14-.179.3-.299.46-.378.218-.12.458-.16.737-.16.5 0 .919.179 1.218.558.3.38.46.919.46 1.578 0 .679-.16 1.197-.46 1.577-.299.38-.7.58-1.197.58-.52 0-.939-.2-1.239-.56-.298-.379-.439-.898-.439-1.557Zm.7-.04c0 .479.099.838.28 1.077.178.24.398.36.677.36.28 0 .519-.12.7-.36.16-.239.259-.598.259-1.077 0-.48-.08-.839-.26-1.078-.18-.24-.398-.34-.699-.34-.28 0-.52.1-.678.34-.18.24-.28.599-.28 1.078ZM78.62 5.23V1.08h2.554v.699h-1.856v.938h1.737v.699h-1.737v1.117h1.937v.7H78.62Zm3.033-1.338.679-.08c.04.26.12.46.26.6.12.12.28.2.499.2.22 0 .4-.06.499-.18a.56.56 0 0 0 .18-.4.403.403 0 0 0-.08-.259.625.625 0 0 0-.24-.18 7.391 7.391 0 0 1-.559-.18c-.378-.1-.637-.24-.797-.399-.2-.24-.32-.52-.32-.838 0-.22.06-.42.16-.6s.24-.32.44-.419c.178-.1.398-.14.658-.14.44 0 .758.1.978.34.22.22.339.54.359.918l-.7.04c-.039-.22-.1-.379-.199-.479a.678.678 0 0 0-.44-.14c-.2 0-.358.06-.48.16a.346.346 0 0 0-.098.26c0 .1.04.179.099.24.08.1.3.199.639.279.339.1.598.2.758.299.16.12.28.26.38.439.08.16.14.4.14.659 0 .239-.059.459-.18.659a.935.935 0 0 1-.458.459c-.237.11-.497.165-.759.16-.419 0-.759-.12-.999-.36-.22-.238-.359-.599-.419-1.058Zm3.394 1.338V1.08h1.118c.42 0 .7.02.819.06.201.06.38.2.5.419.14.2.2.48.2.798 0 .26-.04.48-.12.638-.06.18-.16.32-.28.42-.106.09-.228.157-.359.2-.179.04-.419.06-.718.06h-.46v1.557h-.7Zm.699-3.453v1.178h.38c.28 0 .458-.02.539-.06a.365.365 0 0 0 .22-.2.589.589 0 0 0 .08-.32.714.714 0 0 0-.101-.38.483.483 0 0 0-.28-.18 2.421 2.421 0 0 0-.5-.039h-.338Zm2.376 1.417c0-.44.041-.798.16-1.078.08-.2.18-.4.32-.56.14-.179.279-.299.44-.378.22-.12.458-.16.737-.16.52 0 .919.179 1.219.558.319.38.458.919.458 1.578 0 .679-.14 1.197-.458 1.577a1.458 1.458 0 0 1-1.198.58c-.52 0-.918-.2-1.237-.56-.302-.379-.44-.898-.44-1.557Zm.72-.04c0 .479.08.838.259 1.077.179.24.419.36.699.36.28 0 .5-.12.678-.36.18-.239.26-.598.26-1.077 0-.48-.079-.839-.26-1.078-.16-.24-.398-.34-.678-.34-.3 0-.52.1-.7.34-.179.24-.259.599-.259 1.078Zm3.173 2.076V1.08h1.457c.36 0 .639.04.799.12.179.06.298.2.399.4.099.179.16.399.16.638 0 .32-.08.58-.24.779-.14.2-.38.34-.678.38.16.12.28.239.378.359.101.12.22.359.4.679l.42.798h-.839l-.5-.898c-.18-.32-.299-.52-.359-.62-.08-.08-.14-.14-.22-.16-.08-.039-.178-.059-.359-.059h-.14v1.737h-.678Zm.678-2.395h.52c.339 0 .538-.02.638-.04a.395.395 0 0 0 .18-.18c.059-.08.079-.2.079-.32a.61.61 0 0 0-.1-.34.389.389 0 0 0-.26-.159c-.06 0-.22-.02-.5-.02h-.558v1.059h.001Zm3.554 2.395V1.778H95.23v-.7h2.734v.7h-1.018V5.23h-.699Zm2.177 0V1.08h2.555v.699h-1.857v.938h1.717v.699h-1.717v1.117h1.917v.7h-2.615Zm4.55 0V1.08h2.557v.699h-1.857v.938h1.718v.699h-1.718v1.117h1.917v.7h-2.617Zm5.332 0V1.778h-1.038v-.7h2.755v.7h-1.038V5.23h-.679Zm2.156-4.152h.699v2.255c0 .36 0 .58.019.7.02.156.099.298.22.399.101.1.259.16.458.16.202 0 .341-.04.44-.14a.62.62 0 0 0 .181-.36c.018-.14.039-.379.039-.718V1.08h.678v2.176c0 .519 0 .858-.039 1.058a1.47 1.47 0 0 1-.22.54c-.101.14-.24.239-.399.339-.18.08-.4.12-.66.12-.339 0-.577-.04-.758-.14a1.362 1.362 0 0 1-.399-.36 1.332 1.332 0 0 1-.2-.459c-.041-.24-.06-.578-.06-1.058l.001-2.216Zm3.475 4.152V1.08h1.475c.36 0 .639.04.8.12.16.06.299.2.398.4.101.179.161.399.161.638 0 .32-.08.58-.24.779-.141.2-.379.34-.679.38.161.12.28.239.38.359.1.12.22.359.379.679l.44.798h-.839l-.499-.898c-.179-.32-.3-.52-.379-.62-.061-.08-.121-.14-.201-.16a.834.834 0 0 0-.358-.059h-.14v1.737h-.698Zm.698-2.395h.518c.339 0 .539-.02.619-.04a.442.442 0 0 0 .2-.18.737.737 0 0 0 .079-.32.62.62 0 0 0-.099-.34.382.382 0 0 0-.261-.159c-.059 0-.218-.02-.518-.02h-.539l.001 1.059Zm2.754 2.395V1.08h.7V5.23h-.7Zm1.199-1.338.678-.08c.04.26.12.46.24.6.12.12.298.2.498.2.22 0 .4-.06.52-.18a.641.641 0 0 0 .16-.4.403.403 0 0 0-.08-.259.619.619 0 0 0-.24-.18 12.055 12.055 0 0 1-.559-.18c-.378-.1-.639-.24-.779-.399a1.2 1.2 0 0 1-.319-.838c0-.22.04-.42.14-.6a.986.986 0 0 1 .44-.419c.179-.1.419-.14.678-.14.44 0 .759.1.978.34.22.22.319.54.34.918l-.7.04a.906.906 0 0 0-.178-.479.747.747 0 0 0-.46-.14c-.199 0-.36.06-.459.16-.08.06-.121.14-.121.26 0 .1.041.179.101.24.101.1.3.199.639.279.339.1.598.2.759.299.16.12.279.26.38.439.099.16.138.4.138.659 0 .239-.059.459-.158.659-.107.2-.275.36-.48.459-.199.1-.439.16-.739.16-.438 0-.778-.12-.997-.36-.241-.238-.381-.599-.42-1.058Zm3.373 1.338V1.08h1.038l.619 2.834.619-2.834h1.058V5.23h-.658V1.957l-.68 3.274h-.678l-.679-3.274V5.23h-.639Zm3.872-2.036c0-.44.061-.798.161-1.078.079-.2.18-.4.319-.56.141-.179.279-.299.439-.378.22-.12.48-.16.759-.16.5 0 .899.179 1.219.558.298.38.458.919.458 1.578 0 .679-.16 1.197-.458 1.577-.3.38-.719.58-1.219.58-.518 0-.918-.2-1.217-.56-.3-.379-.461-.898-.461-1.557Zm.72-.04c0 .479.1.838.279 1.077.179.24.399.36.679.36.279 0 .499-.12.679-.36.179-.239.28-.598.28-1.077 0-.48-.101-.839-.261-1.078a.824.824 0 0 0-.699-.34c-.28 0-.518.1-.699.34-.178.24-.258.599-.258 1.078ZM40.627 33.8v-4.173h.719V33.8h-.719Zm1.417 0v-4.173h.7l1.457 2.775v-2.775h.659V33.8h-.719l-1.438-2.715V33.8h-.659Zm3.394-1.357.7-.08c.039.28.14.48.259.6.14.14.3.199.52.199.239 0 .418-.06.538-.18.1-.119.16-.239.16-.398a.42.42 0 0 0-.06-.24.506.506 0 0 0-.26-.18c-.079-.04-.279-.1-.578-.2-.38-.1-.66-.238-.819-.399a1.193 1.193 0 0 1-.319-.838c0-.22.04-.42.14-.599.12-.18.26-.32.46-.419.179-.1.418-.14.699-.14.439 0 .778.12 1.018.34.219.239.339.538.339.917l-.719.04c-.019-.219-.1-.38-.2-.458-.1-.101-.239-.14-.438-.14-.22 0-.38.039-.5.14-.079.06-.12.16-.12.26 0 .099.04.179.12.26.08.078.3.178.66.278.339.08.598.18.778.3.16.1.3.239.38.419.1.18.14.398.14.659 0 .239-.04.459-.16.658-.12.22-.28.38-.48.48-.218.1-.478.14-.777.14-.46 0-.799-.12-1.039-.36-.242-.242-.381-.6-.442-1.06Zm4.313 1.357v-3.454h-1.058v-.719h2.835v.719h-1.059V33.8h-.718Zm2.216 0v-4.173h.719V33.8h-.72Zm2.216 0v-3.454h-1.059v-.719h2.836v.719H54.9V33.8h-.718Zm2.236-4.173h.719v2.256c0 .358 0 .6.02.7.04.159.1.298.219.398.12.12.28.16.48.16.199 0 .358-.04.458-.14.1-.1.16-.22.18-.36.02-.14.04-.379.04-.698v-2.316h.719v2.196c0 .499-.02.839-.06 1.058-.04.2-.12.38-.22.519-.099.14-.24.26-.419.34-.18.079-.4.119-.679.119-.339 0-.6-.04-.778-.14a.92.92 0 0 1-.419-.36 1.346 1.346 0 0 1-.2-.458c-.04-.24-.06-.58-.06-1.058v-2.216ZM60.81 33.8v-3.454h-1.058v-.719h2.834v.719H61.53V33.8h-.718Zm2.016-2.056c0-.42.04-.78.16-1.078.08-.2.18-.4.32-.56.139-.18.298-.3.459-.379.245-.106.51-.16.778-.16.519 0 .938.18 1.258.56.32.378.479.917.479 1.597 0 .659-.159 1.197-.479 1.577-.3.379-.718.559-1.258.559-.519 0-.939-.18-1.258-.56-.319-.379-.459-.898-.459-1.556Zm.739-.04c0 .48.08.838.28 1.078.18.24.418.36.699.36.3 0 .519-.12.718-.36.18-.24.26-.6.26-1.078 0-.479-.08-.839-.26-1.078a.89.89 0 0 0-.718-.34.855.855 0 0 0-.719.36c-.18.24-.26.579-.26 1.058Zm4.652-2.077h1.437c.28 0 .48.02.619.04.14.04.26.1.379.18.1.08.2.2.28.34.06.159.1.318.1.499 0 .2-.04.378-.14.539a.779.779 0 0 1-.36.358c.22.08.38.2.5.38.119.18.179.38.179.62 0 .199-.04.379-.12.558a1.12 1.12 0 0 1-.3.419.857.857 0 0 1-.497.2c-.1.02-.4.02-.859.04H68.22v-4.173Zm.718.7v.957h.48c.279 0 .46 0 .519-.02.119 0 .22-.06.3-.14.059-.079.099-.179.099-.319s-.04-.24-.1-.32c-.06-.079-.14-.12-.26-.14-.08-.02-.28-.02-.62-.02l-.418.001Zm0 1.656v1.119h.678c.261 0 .42-.02.48-.04a.39.39 0 0 0 .26-.16c.08-.08.12-.2.12-.36 0-.119-.04-.22-.08-.32a.552.552 0 0 0-.239-.179c-.1-.04-.3-.06-.638-.06h-.581Zm2.876 1.817v-4.173h1.517c.38 0 .658.04.838.12.18.08.3.2.42.399.098.2.14.399.14.659 0 .299-.08.559-.22.759-.16.22-.4.339-.72.4.16.1.3.218.4.339.1.14.219.359.4.678l.439.82h-.859l-.52-.92c-.2-.32-.318-.518-.378-.599a.575.575 0 0 0-.22-.178c-.08-.04-.2-.04-.36-.04h-.16V33.8h-.717Zm.718-2.416h.54c.34 0 .559 0 .658-.04a.566.566 0 0 0 .2-.179c.04-.08.06-.18.06-.32s-.02-.239-.1-.32a.351.351 0 0 0-.259-.18H72.53v1.04Zm6.09 2.416h-.78l-.299-.958h-1.437l-.3.958h-.759l1.398-4.173h.759L78.62 33.8Zm-1.318-1.657-.5-1.537-.48 1.537h.98Zm1.517.3.699-.08c.06.28.14.48.26.6.14.14.299.199.519.199.238 0 .419-.06.539-.18.119-.119.179-.239.179-.398a.435.435 0 0 0-.079-.24.513.513 0 0 0-.26-.18c-.08-.04-.28-.1-.578-.2-.38-.1-.66-.238-.82-.399a1.19 1.19 0 0 1-.32-.838c0-.22.04-.42.161-.599.1-.18.239-.32.438-.419.2-.1.42-.14.7-.14.44 0 .778.12 1.018.34.219.239.34.538.34.917l-.72.04c-.02-.219-.08-.38-.2-.458-.1-.101-.24-.14-.44-.14-.22 0-.378.039-.499.14a.326.326 0 0 0-.119.26c0 .099.041.179.12.26.08.078.299.178.659.278.34.08.599.18.779.3.159.1.298.239.379.419.1.18.16.398.16.659 0 .239-.06.459-.179.658a1.11 1.11 0 0 1-.48.48c-.2.1-.46.14-.778.14-.46 0-.8-.12-1.039-.36-.24-.242-.38-.6-.44-1.06Zm3.494 1.357v-4.173h.718V33.8h-.718Zm1.416 0v-4.132h.72v3.434h1.796v.698H83.73Zm3.036 0v-4.173H89.4v.719h-1.918v.919h1.778v.698h-1.778v1.139h1.978v.698h-2.695Zm3.293 0v-4.173h.72V33.8h-.72Zm1.398 0v-4.173h1.516c.38 0 .66.04.84.12.16.08.299.2.418.399.1.2.14.399.14.659 0 .299-.08.559-.22.759-.159.22-.399.339-.718.4.16.1.28.218.4.339.098.14.22.359.398.678l.44.82h-.859l-.518-.92c-.2-.32-.32-.518-.38-.599a.576.576 0 0 0-.22-.178c-.08-.04-.2-.04-.358-.04h-.16V33.8h-.72Zm.719-2.416h.539c.339 0 .559 0 .639-.04a.5.5 0 0 0 .22-.179c.04-.08.06-.18.06-.32s-.02-.239-.101-.32a.352.352 0 0 0-.26-.18h-1.097v1.04Zm2.734.36c0-.42.06-.78.16-1.078.08-.2.2-.4.34-.56.14-.18.3-.3.46-.379a1.84 1.84 0 0 1 .758-.16c.54 0 .958.18 1.277.56.3.378.46.917.46 1.597 0 .659-.16 1.197-.46 1.577-.319.379-.738.559-1.258.559-.539 0-.958-.18-1.257-.56-.32-.379-.48-.898-.48-1.556Zm.74-.04c0 .48.099.838.28 1.078.199.24.418.36.717.36.28 0 .52-.12.7-.36.18-.24.279-.6.279-1.078 0-.479-.1-.839-.26-1.078a.89.89 0 0 0-.72-.34.854.854 0 0 0-.717.36c-.18.24-.28.579-.28 1.058Zm4.672-2.077h1.297c.299 0 .539.04.678.08.22.079.399.2.539.399.16.18.28.399.339.659.08.28.121.599.121.998 0 .34-.041.62-.101.879-.099.299-.22.54-.378.738a1.361 1.361 0 0 1-.52.32c-.16.06-.359.1-.639.1h-1.336v-4.173Zm.718.719V33.1h.539c.201 0 .34-.02.419-.04.12-.04.219-.1.299-.18.08-.08.14-.22.179-.399.061-.2.08-.44.08-.759 0-.32-.019-.579-.08-.738a.998.998 0 0 0-.2-.42.622.622 0 0 0-.339-.179c-.099-.04-.279-.04-.578-.04h-.319Zm2.875 3.454v-4.173h2.635v.719h-1.917v.919h1.797v.698h-1.797v1.139h1.997v.698h-2.715Zm5.509 0v-3.454h-1.057v-.719h2.835v.719h-1.059V33.8h-.719Zm2.236-4.173h.72v2.256c0 .358 0 .6.02.7.039.159.099.298.22.398.119.12.279.16.479.16.2 0 .359-.04.458-.14a.62.62 0 0 0 .181-.36c.028-.231.041-.465.039-.698v-2.316h.72v2.196c0 .499-.021.839-.062 1.058-.039.2-.099.38-.218.519a1.024 1.024 0 0 1-.419.34c-.16.079-.4.119-.68.119-.339 0-.598-.04-.777-.14a.908.908 0 0 1-.419-.36 1.329 1.329 0 0 1-.2-.458c-.041-.24-.061-.58-.061-1.058l-.001-2.216Zm3.595 4.173v-4.173h1.517c.378 0 .658.04.838.12.16.08.298.2.399.399.119.2.16.399.16.659 0 .299-.079.559-.24.759-.159.22-.378.339-.699.4.16.1.28.218.38.339.099.14.239.359.419.678l.438.82h-.857l-.539-.92c-.18-.32-.299-.518-.38-.599-.06-.1-.14-.139-.2-.178-.079-.04-.199-.04-.38-.04h-.14V33.8h-.716Zm.718-2.416h.54c.339 0 .559 0 .637-.04a.35.35 0 0 0 .2-.179c.061-.08.08-.18.08-.32s-.04-.239-.099-.32a.393.393 0 0 0-.26-.18h-1.099l.001 1.04Zm2.854 2.416v-4.173h.72V33.8h-.72Zm1.219-1.357.699-.08c.04.28.141.48.26.6.14.14.299.199.518.199.24 0 .42-.06.54-.18a.595.595 0 0 0 .159-.398.411.411 0 0 0-.06-.24.506.506 0 0 0-.259-.18c-.101-.04-.279-.1-.579-.2-.379-.1-.658-.238-.819-.399a1.194 1.194 0 0 1-.319-.838c0-.22.04-.42.14-.599.12-.18.26-.32.459-.419.18-.1.419-.14.699-.14.44 0 .779.12.999.34.239.239.358.538.358.917l-.718.04c-.02-.219-.101-.38-.2-.458-.1-.101-.24-.14-.44-.14-.22 0-.38.039-.499.14a.32.32 0 0 0-.119.26c0 .099.039.179.119.26.08.078.3.178.66.278.339.08.598.18.779.3.158.1.298.239.378.419.101.18.14.398.14.659 0 .239-.039.459-.16.658-.119.22-.279.38-.479.48-.22.1-.479.14-.779.14-.459 0-.798-.12-1.038-.36-.24-.242-.379-.6-.439-1.06Zm3.492 1.357v-4.173h1.08l.657 2.835.64-2.835h1.078V33.8h-.679v-3.274l-.698 3.274h-.699l-.699-3.274V33.8h-.68Zm4.015-2.056c0-.42.059-.78.158-1.078.08-.2.202-.4.339-.56.141-.18.3-.3.46-.379a1.87 1.87 0 0 1 .779-.16c.518 0 .938.18 1.259.56.319.378.458.917.458 1.597 0 .659-.14 1.197-.458 1.577-.321.379-.74.559-1.259.559-.519 0-.959-.18-1.258-.56-.32-.379-.478-.898-.478-1.556Zm.737-.04c0 .48.101.838.28 1.078.2.24.44.36.719.36.28 0 .518-.12.7-.36.199-.24.279-.6.279-1.078 0-.479-.08-.839-.261-1.078a.883.883 0 0 0-.718-.34c-.299 0-.54.12-.719.36-.179.24-.28.579-.28 1.058Zm-86.843-5.59V10.042h8.524v2.716h-6.209v3.553h5.77v2.716h-5.77v4.372h6.41v2.715h-8.725Zm10.66 0V10.042h3.474l2.076 10.96 2.057-10.96h3.494v16.072H61.05V13.456l-2.276 12.658H56.54l-2.277-12.658v12.658h-2.155Zm13.396-16.072h4.592c.918 0 1.598.04 2.036.16.44.1.839.32 1.198.659.36.339.639.778.878 1.337.24.559.36 1.198.36 1.877a5.023 5.023 0 0 1-.44 2.077c-.299.638-.679 1.098-1.178 1.417.699.28 1.239.778 1.617 1.457.36.679.56 1.497.56 2.415 0 .739-.12 1.457-.36 2.136-.26.7-.578 1.238-.997 1.657-.42.42-.94.66-1.558.76-.38.06-1.318.1-2.795.12h-3.913V10.041Zm2.316 2.675v3.714h1.517c.918 0 1.477-.02 1.697-.06.399-.06.7-.26.94-.579.218-.32.338-.738.338-1.258 0-.499-.1-.898-.3-1.197-.199-.32-.479-.5-.879-.56-.218-.04-.878-.06-1.975-.06h-1.338Zm0 6.389v4.293h2.156c.839 0 1.358-.04 1.577-.1.36-.08.639-.3.858-.64.2-.338.321-.797.321-1.356 0-.48-.08-.899-.26-1.238a1.52 1.52 0 0 0-.719-.739c-.32-.14-.999-.22-2.057-.22h-1.876Zm9.264 7.008V10.043h4.891c1.218 0 2.116.14 2.655.439.559.28 1.019.798 1.338 1.537.339.739.5 1.577.5 2.516 0 1.218-.241 2.216-.76 2.995-.5.779-1.258 1.277-2.256 1.477.5.42.918.858 1.239 1.357.319.5.759 1.358 1.316 2.616l1.398 3.134h-2.775L82.95 22.6c-.577-1.237-.997-2.016-1.217-2.355-.22-.32-.44-.54-.699-.66-.24-.12-.619-.179-1.158-.179h-.479v6.708h-2.315Zm2.317-9.284h1.716c1.118 0 1.818-.06 2.096-.2.26-.12.48-.36.64-.679.158-.32.238-.719.238-1.198 0-.539-.1-.978-.32-1.318a1.354 1.354 0 0 0-.858-.62c-.2-.039-.759-.059-1.697-.059h-1.816v4.074ZM99 26.114h-2.514l-.999-3.653h-4.591l-.938 3.653h-2.477l4.473-16.071h2.456l4.59 16.071Zm-4.25-6.369-1.598-5.949-1.537 5.95h3.134Zm6.887 6.37V12.757h-3.414v-2.716h9.123v2.716h-3.394v13.356h-2.315Zm7.186-16.073h2.316v8.704c0 1.378.04 2.277.08 2.676.099.659.339 1.197.718 1.597.38.399.88.579 1.537.579.66 0 1.138-.18 1.478-.559.339-.38.538-.838.598-1.378.08-.56.101-1.457.101-2.735v-8.884h2.316v8.445c0 1.917-.061 3.275-.181 4.073-.119.798-.359 1.477-.699 2.016a3.69 3.69 0 0 1-1.336 1.318c-.559.32-1.299.48-2.218.48-1.098 0-1.916-.16-2.496-.52a3.995 3.995 0 0 1-1.336-1.377 6.041 6.041 0 0 1-.66-1.796c-.14-.919-.22-2.277-.22-4.073v-8.566h.002Zm11.6 16.072V10.043h4.891c1.218 0 2.116.14 2.655.439.56.28 1.018.798 1.337 1.537.341.739.499 1.577.499 2.516 0 1.218-.238 2.216-.758 2.995-.5.779-1.259 1.277-2.255 1.477.473.393.89.85 1.237 1.357.319.5.759 1.358 1.318 2.616l1.398 3.134h-2.776l-1.677-3.514c-.6-1.237-.999-2.016-1.218-2.355-.219-.32-.439-.54-.7-.66-.238-.12-.637-.179-1.157-.179h-.48v6.708h-2.314Zm2.316-9.284h1.717c1.118 0 1.817-.06 2.096-.2.259-.12.479-.36.638-.679.161-.32.239-.719.239-1.198 0-.539-.099-.978-.319-1.318a1.359 1.359 0 0 0-.859-.62c-.199-.039-.759-.059-1.696-.059h-1.817l.001 4.074Z" fill="#000"/><path fill-rule="evenodd" clip-rule="evenodd" d="M0 1.458h32.182L0 33.74V1.458Z" fill="#33A457"/><path fill-rule="evenodd" clip-rule="evenodd" d="M20.822 34.478H.72L32.92 2.196v19.685a8.664 8.664 0 0 0-5.65-2.077c-4.811 0-8.744 3.934-8.744 8.765a8.766 8.766 0 0 0 2.296 5.91Z" fill="#FFF22D"/><path fill-rule="evenodd" clip-rule="evenodd" d="M33.001 34.5V23.358a7.719 7.719 0 0 0-5.73-2.535c-4.253 0-7.746 3.473-7.746 7.746a7.713 7.713 0 0 0 2.776 5.93H33Z" fill="#00ACEC"/></g></symbol></svg>